<svg width="60" height="60" viewBox="0 0 60 60" fill="none" xmlns="http://www.w3.org/2000/svg">
<path d="M26.5257 2.82867C27.5441 -0.638812 32.4559 -0.638812 33.4743 2.82867C34.2565 5.49165 37.6207 6.32084 39.5508 4.32638C42.064 1.72939 46.4131 4.01198 45.7035 7.55559C45.1585 10.277 47.752 12.5746 50.3879 11.7056C53.8202 10.574 56.6103 14.6163 54.3352 17.4242C52.5879 19.5807 53.8166 22.8204 56.5544 23.2759C60.1194 23.8689 60.7114 28.7449 57.392 30.1739C54.8427 31.2713 54.4251 34.7109 56.6376 36.3865C59.5186 38.5684 57.7769 43.1609 54.1736 42.8836C51.4063 42.6707 49.4381 45.5222 50.6185 48.0341C52.1555 51.3049 48.4791 54.562 45.4173 52.6419C43.066 51.1673 39.998 52.7775 39.8759 55.5503C39.7168 59.1608 34.9479 60.3362 33.1292 57.2132C31.7324 54.8148 28.2676 54.8148 26.8708 57.2132C25.0521 60.3362 20.2832 59.1608 20.1241 55.5503C20.002 52.7775 16.934 51.1673 14.5826 52.6419C11.5209 54.562 7.84447 51.3049 9.3815 48.0341C10.5619 45.5222 8.59367 42.6707 5.82638 42.8836C2.22307 43.1609 0.481358 38.5684 3.36236 36.3865C5.57492 34.7109 5.15728 31.2713 2.608 30.1739C-0.711438 28.7449 -0.119398 23.8689 3.44557 23.2759C6.18341 22.8204 7.41206 19.5807 5.66479 17.4242C3.38967 14.6163 6.17984 10.574 9.61208 11.7056C12.248 12.5746 14.8415 10.277 14.2965 7.55559C13.5869 4.01197 17.936 1.72939 20.4492 4.32638C22.3793 6.32084 25.7435 5.49165 26.5257 2.82867Z" fill="#EADFB1"/>
</svg>
